Coordinates
version=1
nRows=7
nColumns=40
inDegrees=yes
endheader
time	pelvis_tilt	pelvis_list	pelvis_rotation	pelvis_tx	pelvis_ty	pelvis_tz	hip_flexion_r	hip_adduction_r	hip_rotation_r	knee_angle_r	knee_angle_r_beta	ankle_angle_r	subtalar_angle_r	mtp_angle_r	hip_flexion_l	hip_adduction_l	hip_rotation_l	knee_angle_l	knee_angle_l_beta	ankle_angle_l	subtalar_angle_l	mtp_angle_l	lumbar_extension	lumbar_bending	lumbar_rotation	arm_flex_r	arm_add_r	arm_rot_r	elbow_flex_r	pro_sup_r	wrist_flex_r	wrist_dev_r	arm_flex_l	arm_add_l	arm_rot_l	elbow_flex_l	pro_sup_l	wrist_flex_l	wrist_dev_l
1760624813.57699990	      3.71744959	      0.50081973	      3.45485340	      0.04185265	      0.95277129	      0.00501540	     80.00000000	     -7.00000000	      0.00000000	     80.00000000	      1.39626340	      0.00000000	      0.00000000	      0.00000000	     80.00000000	     -7.00000000	      0.00000000	     80.00000000	      1.39626340	      0.00000000	      0.00000000	      0.00000000	     -4.32612626	      0.52907432	      5.00198015	      0.73754014	     -7.36638552	     -8.10166508	     18.90858803	      7.79701593	     29.59373761	     -8.61044070	      4.01749407	     -0.17613652	     10.16356373	     14.85313142	      0.00000000	     22.53302694	      9.04622485
1760624813.61100006	      3.68062642	      0.55874538	      3.41368113	      0.04169610	      0.95081544	      0.00542336	     80.00000000	     -7.00000000	      0.00000000	     80.00000000	      1.39626340	      0.00000000	      0.00000000	      0.00000000	     80.00000000	     -7.00000000	      0.00000000	     80.00000000	      1.39626340	      0.00000000	      0.00000000	      0.00000000	     -4.35629422	      0.49435458	      4.94352601	      1.14684974	     -7.12239401	     -6.89614369	     16.34367266	      6.47665618	     29.04091787	     -7.66886036	      4.26387811	      0.16277824	     11.00184213	     11.09879166	      0.00000000	     22.42048620	      8.26811754
1760624813.64400005	      3.87289398	      0.58143844	      3.36850950	      0.04535030	      0.94827210	      0.00637843	     80.00000000	     -7.00000000	      0.00000000	     80.00000000	      1.39626340	      0.00000000	      0.00000000	      0.00000000	     80.00000000	     -7.00000000	      0.00000000	     80.00000000	      1.39626340	      0.00000000	      0.00000000	      0.00000000	     -4.69235691	      0.50520899	      4.89508981	      1.79704974	     -6.72001277	     -5.59086931	     13.85978964	      5.20414504	     27.79983135	     -6.82785321	      4.44855343	      0.48751199	     11.46120594	      7.31538327	      0.00000000	     22.21337413	      7.67542197
1760624813.67799997	      3.58151148	      0.60552623	      3.31834689	      0.03968821	      0.94405500	      0.00613133	     80.00000000	     -7.00000000	      0.00000000	     80.00000000	      1.39626340	      0.00000000	      0.00000000	      0.00000000	     80.00000000	     -7.00000000	      0.00000000	     80.00000000	      1.39626340	      0.00000000	      0.00000000	      0.00000000	     -4.30008141	      0.50736191	      4.91163643	      1.73532010	     -6.33741918	     -5.29247263	     11.84550970	      4.65283521	     27.49206422	     -6.04625088	      4.08090227	      0.61984626	     11.27812844	      5.57913457	      0.00000000	     21.99895681	      7.91310562
1760624813.71099997	      3.69011268	      0.60019921	      3.29724821	      0.04200552	      0.94249718	      0.00660795	     80.00000000	     -7.00000000	      0.00000000	     80.00000000	      1.39626340	      0.00000000	      0.00000000	      0.00000000	     80.00000000	     -7.00000000	      0.00000000	     80.00000000	      1.39626340	      0.00000000	      0.00000000	      0.00000000	     -4.48356771	      0.50242781	      4.94012691	      1.88506761	     -5.97469502	     -5.46406226	     11.28642622	      4.65965024	     26.75202441	     -5.60567905	      3.85802518	      0.60685309	     10.82849715	      4.71270691	      0.00000000	     21.95173977	      8.37802157
1760624813.74399996	      3.88181162	      0.56883583	      3.30930001	      0.04612411	      0.94336591	      0.00767116	     80.00000000	     -7.00000000	      0.00000000	     80.00000000	      1.39626340	      0.00000000	      0.00000000	      0.00000000	     80.00000000	     -7.00000000	      0.00000000	     80.00000000	      1.39626340	      0.00000000	      0.00000000	      0.00000000	     -4.73865527	      0.56091322	      4.93210839	      1.92771330	     -5.61843203	     -6.01547459	     11.03762393	      5.15006254	     25.81101667	     -5.14936161	      3.64781662	      0.52121801	      9.95621902	      4.26205594	      0.00000000	     22.18946435	      8.93911460
1760624813.77800012	      3.82539932	      0.56435364	      3.32865980	      0.04557514	      0.94406560	      0.00734214	     80.00000000	     -7.00000000	      0.00000000	     80.00000000	      1.39626340	      0.00000000	      0.00000000	      0.00000000	     80.00000000	     -7.00000000	      0.00000000	     80.00000000	      1.39626340	      0.00000000	      0.00000000	      0.00000000	     -4.67363858	      0.54652356	      4.94753514	      1.83076217	     -5.35139624	     -6.34942472	     10.69529084	      5.50588946	     25.58759482	     -4.78854138	      3.63863799	      0.41035930	      9.48261076	      3.85354229	      0.00000000	     22.27767765	      9.30447019
